<mxfile host="app.diagrams.net" agent="Mozilla/5.0 (Windows NT 10.0; Win64; x64) AppleWebKit/537.36 (KHTML, like Gecko) Chrome/134.0.0.0 Safari/537.36" version="26.1.0">
  <diagram name="Page-1" id="ZAB9_FmAw0L7h3K631Ix">
    <mxGraphModel dx="1619" dy="1485" grid="0" gridSize="10" guides="1" tooltips="1" connect="1" arrows="1" fold="1" page="0" pageScale="1" pageWidth="850" pageHeight="1100" math="0" shadow="0">
      <root>
        <mxCell id="0" />
        <mxCell id="1" parent="0" />
        <mxCell id="pnL7EBft7b9U8jceKXxR-1" value="&lt;font style=&quot;font-size: 25px;&quot;&gt;buku&lt;/font&gt;" style="rounded=0;whiteSpace=wrap;html=1;" parent="1" vertex="1">
          <mxGeometry x="-35" y="99" width="120" height="60" as="geometry" />
        </mxCell>
        <mxCell id="pnL7EBft7b9U8jceKXxR-4" value="id_buku&lt;hr&gt;" style="ellipse;whiteSpace=wrap;html=1;" parent="1" vertex="1">
          <mxGeometry x="157" y="175" width="120" height="80" as="geometry" />
        </mxCell>
        <mxCell id="pnL7EBft7b9U8jceKXxR-9" value="Judul_buku" style="ellipse;whiteSpace=wrap;html=1;" parent="1" vertex="1">
          <mxGeometry x="-227" y="89" width="120" height="80" as="geometry" />
        </mxCell>
        <mxCell id="pnL7EBft7b9U8jceKXxR-10" value="" style="endArrow=none;html=1;rounded=0;fontSize=12;startSize=8;endSize=8;curved=1;exitX=1;exitY=0.5;exitDx=0;exitDy=0;entryX=0;entryY=0.5;entryDx=0;entryDy=0;" parent="1" source="pnL7EBft7b9U8jceKXxR-9" target="pnL7EBft7b9U8jceKXxR-1" edge="1">
          <mxGeometry width="50" height="50" relative="1" as="geometry">
            <mxPoint x="35" y="109" as="sourcePoint" />
            <mxPoint x="35" y="27" as="targetPoint" />
          </mxGeometry>
        </mxCell>
        <mxCell id="pnL7EBft7b9U8jceKXxR-16" value="penulis" style="ellipse;whiteSpace=wrap;html=1;" parent="1" vertex="1">
          <mxGeometry x="-227" y="-1" width="120" height="80" as="geometry" />
        </mxCell>
        <mxCell id="pnL7EBft7b9U8jceKXxR-17" value="" style="endArrow=none;html=1;rounded=0;fontSize=12;startSize=8;endSize=8;curved=1;exitX=1;exitY=0.5;exitDx=0;exitDy=0;entryX=0;entryY=0;entryDx=0;entryDy=0;" parent="1" source="pnL7EBft7b9U8jceKXxR-16" target="pnL7EBft7b9U8jceKXxR-1" edge="1">
          <mxGeometry width="50" height="50" relative="1" as="geometry">
            <mxPoint x="5" y="-47" as="sourcePoint" />
            <mxPoint x="-65" y="-27" as="targetPoint" />
          </mxGeometry>
        </mxCell>
        <mxCell id="pnL7EBft7b9U8jceKXxR-18" value="penerbit" style="ellipse;whiteSpace=wrap;html=1;" parent="1" vertex="1">
          <mxGeometry x="-227" y="179" width="120" height="80" as="geometry" />
        </mxCell>
        <mxCell id="pnL7EBft7b9U8jceKXxR-19" value="" style="endArrow=none;html=1;rounded=0;fontSize=12;startSize=8;endSize=8;curved=1;exitX=1;exitY=0.5;exitDx=0;exitDy=0;entryX=0;entryY=1;entryDx=0;entryDy=0;" parent="1" source="pnL7EBft7b9U8jceKXxR-18" target="pnL7EBft7b9U8jceKXxR-1" edge="1">
          <mxGeometry width="50" height="50" relative="1" as="geometry">
            <mxPoint x="-464" y="254" as="sourcePoint" />
            <mxPoint x="-274" y="254" as="targetPoint" />
          </mxGeometry>
        </mxCell>
        <mxCell id="pnL7EBft7b9U8jceKXxR-22" value="&lt;span style=&quot;font-size: 23px;&quot;&gt;Peminjam&lt;/span&gt;" style="rounded=0;whiteSpace=wrap;html=1;" parent="1" vertex="1">
          <mxGeometry x="-310" y="-483" width="120" height="60" as="geometry" />
        </mxCell>
        <mxCell id="pnL7EBft7b9U8jceKXxR-23" value="" style="endArrow=none;html=1;rounded=0;fontSize=12;startSize=8;endSize=8;curved=1;exitX=1;exitY=0.5;exitDx=0;exitDy=0;entryX=0;entryY=0.5;entryDx=0;entryDy=0;" parent="1" source="pnL7EBft7b9U8jceKXxR-24" target="pnL7EBft7b9U8jceKXxR-22" edge="1">
          <mxGeometry width="50" height="50" relative="1" as="geometry">
            <mxPoint x="-749" y="-452" as="sourcePoint" />
            <mxPoint x="-287" y="-607" as="targetPoint" />
          </mxGeometry>
        </mxCell>
        <mxCell id="pnL7EBft7b9U8jceKXxR-24" value="id_anggota&lt;hr&gt;" style="ellipse;whiteSpace=wrap;html=1;" parent="1" vertex="1">
          <mxGeometry x="-512" y="-493" width="120" height="80" as="geometry" />
        </mxCell>
        <mxCell id="pnL7EBft7b9U8jceKXxR-25" value="" style="endArrow=none;html=1;rounded=0;fontSize=12;startSize=8;endSize=8;curved=1;exitX=1;exitY=0.5;exitDx=0;exitDy=0;entryX=0;entryY=1;entryDx=0;entryDy=0;" parent="1" source="pnL7EBft7b9U8jceKXxR-26" target="pnL7EBft7b9U8jceKXxR-22" edge="1">
          <mxGeometry width="50" height="50" relative="1" as="geometry">
            <mxPoint x="-749" y="-356" as="sourcePoint" />
            <mxPoint x="-310" y="-357" as="targetPoint" />
          </mxGeometry>
        </mxCell>
        <mxCell id="pnL7EBft7b9U8jceKXxR-26" value="password_anggota" style="ellipse;whiteSpace=wrap;html=1;" parent="1" vertex="1">
          <mxGeometry x="-512" y="-397" width="120" height="80" as="geometry" />
        </mxCell>
        <mxCell id="pnL7EBft7b9U8jceKXxR-29" value="" style="endArrow=none;html=1;rounded=0;fontSize=12;startSize=8;endSize=8;curved=1;exitX=1;exitY=0.5;exitDx=0;exitDy=0;entryX=0;entryY=0;entryDx=0;entryDy=0;" parent="1" source="pnL7EBft7b9U8jceKXxR-30" target="pnL7EBft7b9U8jceKXxR-22" edge="1">
          <mxGeometry width="50" height="50" relative="1" as="geometry">
            <mxPoint x="-749" y="-561" as="sourcePoint" />
            <mxPoint x="-310" y="-562" as="targetPoint" />
          </mxGeometry>
        </mxCell>
        <mxCell id="pnL7EBft7b9U8jceKXxR-30" value="Email" style="ellipse;whiteSpace=wrap;html=1;" parent="1" vertex="1">
          <mxGeometry x="-512" y="-598" width="120" height="80" as="geometry" />
        </mxCell>
        <mxCell id="pnL7EBft7b9U8jceKXxR-31" value="meminjam" style="rhombus;whiteSpace=wrap;html=1;" parent="1" vertex="1">
          <mxGeometry x="212.5" y="-505.5" width="107" height="109" as="geometry" />
        </mxCell>
        <mxCell id="pnL7EBft7b9U8jceKXxR-32" value="" style="endArrow=none;html=1;rounded=0;fontSize=12;startSize=8;endSize=8;curved=1;exitX=1;exitY=0.5;exitDx=0;exitDy=0;entryX=0;entryY=0.5;entryDx=0;entryDy=0;" parent="1" source="pnL7EBft7b9U8jceKXxR-22" target="pnL7EBft7b9U8jceKXxR-31" edge="1">
          <mxGeometry width="50" height="50" relative="1" as="geometry">
            <mxPoint x="101" y="-443" as="sourcePoint" />
            <mxPoint x="183" y="-443" as="targetPoint" />
          </mxGeometry>
        </mxCell>
        <mxCell id="pnL7EBft7b9U8jceKXxR-47" value="" style="endArrow=none;html=1;rounded=0;fontSize=12;startSize=8;endSize=8;curved=1;exitX=1;exitY=1;exitDx=0;exitDy=0;entryX=0;entryY=0.5;entryDx=0;entryDy=0;" parent="1" source="pnL7EBft7b9U8jceKXxR-1" target="pnL7EBft7b9U8jceKXxR-4" edge="1">
          <mxGeometry width="50" height="50" relative="1" as="geometry">
            <mxPoint x="95" y="139" as="sourcePoint" />
            <mxPoint x="167" y="139" as="targetPoint" />
          </mxGeometry>
        </mxCell>
        <mxCell id="pnL7EBft7b9U8jceKXxR-50" value="denda" style="ellipse;whiteSpace=wrap;html=1;" parent="1" vertex="1">
          <mxGeometry x="-310" y="-397" width="120" height="80" as="geometry" />
        </mxCell>
        <mxCell id="pnL7EBft7b9U8jceKXxR-51" value="" style="endArrow=none;html=1;rounded=0;fontSize=12;startSize=8;endSize=8;curved=1;exitX=0.5;exitY=0;exitDx=0;exitDy=0;entryX=0.5;entryY=1;entryDx=0;entryDy=0;" parent="1" source="pnL7EBft7b9U8jceKXxR-50" target="pnL7EBft7b9U8jceKXxR-22" edge="1">
          <mxGeometry width="50" height="50" relative="1" as="geometry">
            <mxPoint x="-382" y="-347" as="sourcePoint" />
            <mxPoint x="-300" y="-413" as="targetPoint" />
          </mxGeometry>
        </mxCell>
        <mxCell id="pnL7EBft7b9U8jceKXxR-52" value="terdiri&lt;div&gt;dari&lt;/div&gt;" style="rhombus;whiteSpace=wrap;html=1;" parent="1" vertex="1">
          <mxGeometry x="-20.5" y="-136" width="91" height="85" as="geometry" />
        </mxCell>
        <mxCell id="pnL7EBft7b9U8jceKXxR-53" value="" style="endArrow=none;html=1;rounded=0;fontSize=12;startSize=8;endSize=8;curved=1;exitX=0.5;exitY=0;exitDx=0;exitDy=0;entryX=0.5;entryY=1;entryDx=0;entryDy=0;" parent="1" source="pnL7EBft7b9U8jceKXxR-1" target="pnL7EBft7b9U8jceKXxR-52" edge="1">
          <mxGeometry width="50" height="50" relative="1" as="geometry">
            <mxPoint x="-101.5" y="-43" as="sourcePoint" />
            <mxPoint x="-51.5" y="-93" as="targetPoint" />
          </mxGeometry>
        </mxCell>
        <mxCell id="pnL7EBft7b9U8jceKXxR-54" value="Eksemplar" style="rounded=0;whiteSpace=wrap;html=1;" parent="1" vertex="1">
          <mxGeometry x="212.5" y="-123.5" width="120" height="60" as="geometry" />
        </mxCell>
        <mxCell id="pnL7EBft7b9U8jceKXxR-55" value="kategori" style="ellipse;whiteSpace=wrap;html=1;" parent="1" vertex="1">
          <mxGeometry x="442" y="-133.5" width="120" height="80" as="geometry" />
        </mxCell>
        <mxCell id="pnL7EBft7b9U8jceKXxR-56" value="" style="endArrow=none;html=1;rounded=0;fontSize=12;startSize=8;endSize=8;curved=1;entryX=0;entryY=0.5;entryDx=0;entryDy=0;exitX=1;exitY=0.5;exitDx=0;exitDy=0;" parent="1" source="pnL7EBft7b9U8jceKXxR-54" target="pnL7EBft7b9U8jceKXxR-55" edge="1">
          <mxGeometry width="50" height="50" relative="1" as="geometry">
            <mxPoint x="254" y="-63.5" as="sourcePoint" />
            <mxPoint x="420" y="-186.5" as="targetPoint" />
          </mxGeometry>
        </mxCell>
        <mxCell id="pnL7EBft7b9U8jceKXxR-57" value="" style="endArrow=none;html=1;rounded=0;fontSize=12;startSize=8;endSize=8;curved=1;exitX=0;exitY=0.5;exitDx=0;exitDy=0;entryX=1;entryY=0.5;entryDx=0;entryDy=0;" parent="1" source="pnL7EBft7b9U8jceKXxR-54" target="pnL7EBft7b9U8jceKXxR-52" edge="1">
          <mxGeometry width="50" height="50" relative="1" as="geometry">
            <mxPoint x="35.5" y="109" as="sourcePoint" />
            <mxPoint x="35.5" y="-41" as="targetPoint" />
          </mxGeometry>
        </mxCell>
        <mxCell id="pnL7EBft7b9U8jceKXxR-58" value="id_eksemplar&lt;hr&gt;" style="ellipse;whiteSpace=wrap;html=1;" parent="1" vertex="1">
          <mxGeometry x="442" y="-31" width="120" height="80" as="geometry" />
        </mxCell>
        <mxCell id="pnL7EBft7b9U8jceKXxR-59" value="" style="endArrow=none;html=1;rounded=0;fontSize=12;startSize=8;endSize=8;curved=1;entryX=0;entryY=0.5;entryDx=0;entryDy=0;exitX=1;exitY=1;exitDx=0;exitDy=0;" parent="1" source="pnL7EBft7b9U8jceKXxR-54" target="pnL7EBft7b9U8jceKXxR-58" edge="1">
          <mxGeometry width="50" height="50" relative="1" as="geometry">
            <mxPoint x="572" y="156" as="sourcePoint" />
            <mxPoint x="501.9999999999998" y="115.5" as="targetPoint" />
          </mxGeometry>
        </mxCell>
        <mxCell id="pnL7EBft7b9U8jceKXxR-61" value="status" style="ellipse;whiteSpace=wrap;html=1;" parent="1" vertex="1">
          <mxGeometry x="442" y="-248" width="120" height="80" as="geometry" />
        </mxCell>
        <mxCell id="pnL7EBft7b9U8jceKXxR-62" value="" style="endArrow=none;html=1;rounded=0;fontSize=12;startSize=8;endSize=8;curved=1;entryX=0;entryY=0.5;entryDx=0;entryDy=0;exitX=1;exitY=0;exitDx=0;exitDy=0;" parent="1" source="pnL7EBft7b9U8jceKXxR-54" target="pnL7EBft7b9U8jceKXxR-61" edge="1">
          <mxGeometry width="50" height="50" relative="1" as="geometry">
            <mxPoint x="332.5" y="-207.5" as="sourcePoint" />
            <mxPoint x="420" y="-301" as="targetPoint" />
          </mxGeometry>
        </mxCell>
        <mxCell id="pnL7EBft7b9U8jceKXxR-63" value="Judul_buku" style="ellipse;whiteSpace=wrap;html=1;" parent="1" vertex="1">
          <mxGeometry x="442" y="74" width="120" height="79" as="geometry" />
        </mxCell>
        <mxCell id="pnL7EBft7b9U8jceKXxR-64" value="" style="endArrow=none;html=1;rounded=0;fontSize=12;startSize=8;endSize=8;curved=1;exitX=0;exitY=0;exitDx=0;exitDy=0;entryX=0.75;entryY=1;entryDx=0;entryDy=0;" parent="1" source="pnL7EBft7b9U8jceKXxR-63" target="pnL7EBft7b9U8jceKXxR-54" edge="1">
          <mxGeometry width="50" height="50" relative="1" as="geometry">
            <mxPoint x="511.5" y="-39" as="sourcePoint" />
            <mxPoint x="442" y="-19" as="targetPoint" />
          </mxGeometry>
        </mxCell>
        <mxCell id="pnL7EBft7b9U8jceKXxR-65" value="penulis" style="ellipse;whiteSpace=wrap;html=1;" parent="1" vertex="1">
          <mxGeometry x="212.5" y="-22" width="120" height="80" as="geometry" />
        </mxCell>
        <mxCell id="pnL7EBft7b9U8jceKXxR-66" value="" style="endArrow=none;html=1;rounded=0;fontSize=12;startSize=8;endSize=8;curved=1;exitX=0.5;exitY=0;exitDx=0;exitDy=0;entryX=0.5;entryY=1;entryDx=0;entryDy=0;" parent="1" source="pnL7EBft7b9U8jceKXxR-65" target="pnL7EBft7b9U8jceKXxR-54" edge="1">
          <mxGeometry width="50" height="50" relative="1" as="geometry">
            <mxPoint x="294.5" y="-77" as="sourcePoint" />
            <mxPoint x="255" y="69" as="targetPoint" />
          </mxGeometry>
        </mxCell>
        <mxCell id="pnL7EBft7b9U8jceKXxR-67" value="penerbit" style="ellipse;whiteSpace=wrap;html=1;" parent="1" vertex="1">
          <mxGeometry x="70.5" y="-22" width="120" height="80" as="geometry" />
        </mxCell>
        <mxCell id="pnL7EBft7b9U8jceKXxR-68" value="" style="endArrow=none;html=1;rounded=0;fontSize=12;startSize=8;endSize=8;curved=1;exitX=1;exitY=0;exitDx=0;exitDy=0;entryX=0;entryY=1;entryDx=0;entryDy=0;" parent="1" source="pnL7EBft7b9U8jceKXxR-67" target="pnL7EBft7b9U8jceKXxR-54" edge="1">
          <mxGeometry width="50" height="50" relative="1" as="geometry">
            <mxPoint x="-46.5" y="-301" as="sourcePoint" />
            <mxPoint x="308.5" y="-152" as="targetPoint" />
          </mxGeometry>
        </mxCell>
        <mxCell id="pnL7EBft7b9U8jceKXxR-71" value="" style="endArrow=none;html=1;rounded=0;fontSize=12;startSize=8;endSize=8;curved=1;exitX=0.5;exitY=1;exitDx=0;exitDy=0;entryX=0.5;entryY=0;entryDx=0;entryDy=0;" parent="1" source="pnL7EBft7b9U8jceKXxR-31" target="pnL7EBft7b9U8jceKXxR-54" edge="1">
          <mxGeometry width="50" height="50" relative="1" as="geometry">
            <mxPoint x="265" y="-342" as="sourcePoint" />
            <mxPoint x="213" y="-172" as="targetPoint" />
          </mxGeometry>
        </mxCell>
        <mxCell id="pnL7EBft7b9U8jceKXxR-72" value="jumlah" style="ellipse;whiteSpace=wrap;html=1;" parent="1" vertex="1">
          <mxGeometry x="442" y="-344" width="120" height="80" as="geometry" />
        </mxCell>
        <mxCell id="pnL7EBft7b9U8jceKXxR-73" value="" style="endArrow=none;html=1;rounded=0;fontSize=12;startSize=8;endSize=8;curved=1;entryX=0;entryY=1;entryDx=0;entryDy=0;exitX=0.75;exitY=0;exitDx=0;exitDy=0;" parent="1" source="pnL7EBft7b9U8jceKXxR-54" target="pnL7EBft7b9U8jceKXxR-72" edge="1">
          <mxGeometry width="50" height="50" relative="1" as="geometry">
            <mxPoint x="302" y="-155" as="sourcePoint" />
            <mxPoint x="413" y="-397" as="targetPoint" />
          </mxGeometry>
        </mxCell>
        <mxCell id="pnL7EBft7b9U8jceKXxR-74" value="" style="endArrow=none;html=1;rounded=0;fontSize=12;startSize=8;endSize=8;curved=1;exitX=0.5;exitY=1;exitDx=0;exitDy=0;entryX=0.5;entryY=0;entryDx=0;entryDy=0;" parent="1" source="pnL7EBft7b9U8jceKXxR-75" target="pnL7EBft7b9U8jceKXxR-22" edge="1">
          <mxGeometry width="50" height="50" relative="1" as="geometry">
            <mxPoint x="-542.5" y="-561" as="sourcePoint" />
            <mxPoint x="-103.5" y="-483" as="targetPoint" />
          </mxGeometry>
        </mxCell>
        <mxCell id="pnL7EBft7b9U8jceKXxR-75" value="status" style="ellipse;whiteSpace=wrap;html=1;" parent="1" vertex="1">
          <mxGeometry x="-310" y="-598" width="120" height="80" as="geometry" />
        </mxCell>
        <mxCell id="pnL7EBft7b9U8jceKXxR-76" value="" style="endArrow=none;html=1;rounded=0;fontSize=12;startSize=8;endSize=8;curved=1;exitX=0.5;exitY=1;exitDx=0;exitDy=0;entryX=0.5;entryY=0;entryDx=0;entryDy=0;" parent="1" source="pnL7EBft7b9U8jceKXxR-77" target="pnL7EBft7b9U8jceKXxR-31" edge="1">
          <mxGeometry width="50" height="50" relative="1" as="geometry">
            <mxPoint x="-26.5" y="-611" as="sourcePoint" />
            <mxPoint x="266" y="-533" as="targetPoint" />
          </mxGeometry>
        </mxCell>
        <mxCell id="pnL7EBft7b9U8jceKXxR-77" value="status" style="ellipse;whiteSpace=wrap;html=1;" parent="1" vertex="1">
          <mxGeometry x="206" y="-627" width="120" height="80" as="geometry" />
        </mxCell>
        <mxCell id="pnL7EBft7b9U8jceKXxR-78" value="" style="endArrow=none;html=1;rounded=0;fontSize=12;startSize=8;endSize=8;curved=1;exitX=0;exitY=1;exitDx=0;exitDy=0;entryX=1;entryY=0;entryDx=0;entryDy=0;" parent="1" source="pnL7EBft7b9U8jceKXxR-79" target="pnL7EBft7b9U8jceKXxR-31" edge="1">
          <mxGeometry width="50" height="50" relative="1" as="geometry">
            <mxPoint x="134.5" y="-609" as="sourcePoint" />
            <mxPoint x="427" y="-503" as="targetPoint" />
          </mxGeometry>
        </mxCell>
        <mxCell id="pnL7EBft7b9U8jceKXxR-79" value="Judul_buku" style="ellipse;whiteSpace=wrap;html=1;" parent="1" vertex="1">
          <mxGeometry x="367" y="-625" width="120" height="80" as="geometry" />
        </mxCell>
        <mxCell id="pnL7EBft7b9U8jceKXxR-80" value="" style="endArrow=none;html=1;rounded=0;fontSize=12;startSize=8;endSize=8;curved=1;exitX=1;exitY=0.5;exitDx=0;exitDy=0;entryX=0;entryY=0.5;entryDx=0;entryDy=0;" parent="1" source="pnL7EBft7b9U8jceKXxR-31" target="pnL7EBft7b9U8jceKXxR-81" edge="1">
          <mxGeometry width="50" height="50" relative="1" as="geometry">
            <mxPoint x="140.5" y="-470" as="sourcePoint" />
            <mxPoint x="433" y="-364" as="targetPoint" />
          </mxGeometry>
        </mxCell>
        <mxCell id="pnL7EBft7b9U8jceKXxR-81" value="id_anggota&lt;hr&gt;" style="ellipse;whiteSpace=wrap;html=1;" parent="1" vertex="1">
          <mxGeometry x="372" y="-491" width="120" height="80" as="geometry" />
        </mxCell>
        <mxCell id="pnL7EBft7b9U8jceKXxR-82" value="" style="endArrow=none;html=1;rounded=0;fontSize=12;startSize=8;endSize=8;curved=1;exitX=0;exitY=0;exitDx=0;exitDy=0;entryX=1;entryY=1;entryDx=0;entryDy=0;" parent="1" source="pnL7EBft7b9U8jceKXxR-31" target="pnL7EBft7b9U8jceKXxR-83" edge="1">
          <mxGeometry width="50" height="50" relative="1" as="geometry">
            <mxPoint x="-210.5" y="-611.5" as="sourcePoint" />
            <mxPoint x="82" y="-505.5" as="targetPoint" />
          </mxGeometry>
        </mxCell>
        <mxCell id="pnL7EBft7b9U8jceKXxR-83" value="Tanggal pinjam" style="ellipse;whiteSpace=wrap;html=1;" parent="1" vertex="1">
          <mxGeometry x="22" y="-627.5" width="120" height="80" as="geometry" />
        </mxCell>
        <mxCell id="pnL7EBft7b9U8jceKXxR-84" value="" style="endArrow=none;html=1;rounded=0;fontSize=12;startSize=8;endSize=8;curved=1;exitX=0;exitY=1;exitDx=0;exitDy=0;entryX=0.985;entryY=0.322;entryDx=0;entryDy=0;entryPerimeter=0;" parent="1" source="pnL7EBft7b9U8jceKXxR-31" target="pnL7EBft7b9U8jceKXxR-85" edge="1">
          <mxGeometry width="50" height="50" relative="1" as="geometry">
            <mxPoint x="-210.5" y="-402" as="sourcePoint" />
            <mxPoint x="82" y="-296" as="targetPoint" />
          </mxGeometry>
        </mxCell>
        <mxCell id="pnL7EBft7b9U8jceKXxR-85" value="Tanggal Kembali" style="ellipse;whiteSpace=wrap;html=1;" parent="1" vertex="1">
          <mxGeometry x="22" y="-418" width="120" height="80" as="geometry" />
        </mxCell>
        <mxCell id="pnL7EBft7b9U8jceKXxR-86" value="Admin" style="rounded=0;whiteSpace=wrap;html=1;" parent="1" vertex="1">
          <mxGeometry x="-35" y="472" width="120" height="60" as="geometry" />
        </mxCell>
        <mxCell id="pnL7EBft7b9U8jceKXxR-87" value="id_admin&lt;hr&gt;" style="ellipse;whiteSpace=wrap;html=1;" parent="1" vertex="1">
          <mxGeometry x="-207" y="462" width="120" height="80" as="geometry" />
        </mxCell>
        <mxCell id="pnL7EBft7b9U8jceKXxR-88" value="" style="endArrow=none;html=1;rounded=0;fontSize=12;startSize=8;endSize=8;curved=1;exitX=1;exitY=0.5;exitDx=0;exitDy=0;entryX=0;entryY=0.5;entryDx=0;entryDy=0;" parent="1" source="pnL7EBft7b9U8jceKXxR-87" target="pnL7EBft7b9U8jceKXxR-86" edge="1">
          <mxGeometry width="50" height="50" relative="1" as="geometry">
            <mxPoint x="-97" y="313" as="sourcePoint" />
            <mxPoint x="-25" y="253" as="targetPoint" />
          </mxGeometry>
        </mxCell>
        <mxCell id="pnL7EBft7b9U8jceKXxR-89" value="password_admin" style="ellipse;whiteSpace=wrap;html=1;" parent="1" vertex="1">
          <mxGeometry x="157" y="462" width="120" height="80" as="geometry" />
        </mxCell>
        <mxCell id="pnL7EBft7b9U8jceKXxR-90" value="" style="endArrow=none;html=1;rounded=0;fontSize=12;startSize=8;endSize=8;curved=1;entryX=1;entryY=0.5;entryDx=0;entryDy=0;exitX=0;exitY=0.5;exitDx=0;exitDy=0;" parent="1" source="pnL7EBft7b9U8jceKXxR-89" target="pnL7EBft7b9U8jceKXxR-86" edge="1">
          <mxGeometry width="50" height="50" relative="1" as="geometry">
            <mxPoint x="140" y="460" as="sourcePoint" />
            <mxPoint x="329" y="505" as="targetPoint" />
          </mxGeometry>
        </mxCell>
        <mxCell id="pnL7EBft7b9U8jceKXxR-91" value="Email_admin" style="ellipse;whiteSpace=wrap;html=1;" parent="1" vertex="1">
          <mxGeometry x="-35" y="576" width="120" height="80" as="geometry" />
        </mxCell>
        <mxCell id="pnL7EBft7b9U8jceKXxR-92" value="" style="endArrow=none;html=1;rounded=0;fontSize=12;startSize=8;endSize=8;curved=1;exitX=0.5;exitY=0;exitDx=0;exitDy=0;entryX=0.5;entryY=1;entryDx=0;entryDy=0;" parent="1" source="pnL7EBft7b9U8jceKXxR-91" target="pnL7EBft7b9U8jceKXxR-86" edge="1">
          <mxGeometry width="50" height="50" relative="1" as="geometry">
            <mxPoint x="75" y="427" as="sourcePoint" />
            <mxPoint x="137" y="616" as="targetPoint" />
          </mxGeometry>
        </mxCell>
        <mxCell id="pnL7EBft7b9U8jceKXxR-93" value="" style="endArrow=none;html=1;rounded=0;fontSize=12;startSize=8;endSize=8;curved=1;entryX=0.5;entryY=0;entryDx=0;entryDy=0;exitX=0.5;exitY=1;exitDx=0;exitDy=0;" parent="1" source="pnL7EBft7b9U8jceKXxR-102" target="pnL7EBft7b9U8jceKXxR-86" edge="1">
          <mxGeometry width="50" height="50" relative="1" as="geometry">
            <mxPoint x="26" y="416" as="sourcePoint" />
            <mxPoint x="35" y="542" as="targetPoint" />
          </mxGeometry>
        </mxCell>
        <mxCell id="pnL7EBft7b9U8jceKXxR-102" value="mengedit" style="rhombus;whiteSpace=wrap;html=1;" parent="1" vertex="1">
          <mxGeometry x="-15" y="312" width="80" height="80" as="geometry" />
        </mxCell>
        <mxCell id="pnL7EBft7b9U8jceKXxR-103" value="" style="endArrow=none;html=1;rounded=0;fontSize=12;startSize=8;endSize=8;curved=1;entryX=0.5;entryY=1;entryDx=0;entryDy=0;exitX=0.5;exitY=0;exitDx=0;exitDy=0;" parent="1" source="pnL7EBft7b9U8jceKXxR-102" target="pnL7EBft7b9U8jceKXxR-1" edge="1">
          <mxGeometry width="50" height="50" relative="1" as="geometry">
            <mxPoint x="-60" y="305" as="sourcePoint" />
            <mxPoint x="-10" y="255" as="targetPoint" />
          </mxGeometry>
        </mxCell>
      </root>
    </mxGraphModel>
  </diagram>
</mxfile>
